<?xml version="1.0" encoding="UTF-8"?>
<!DOCTYPE svg PUBLIC "-//W3C//DTD SVG 1.1//EN" "http://www.w3.org/Graphics/SVG/1.1/DTD/svg11.dtd">
<!-- Creator: CorelDRAW X7 -->
<svg xmlns="http://www.w3.org/2000/svg" xml:space="preserve" width="3.59999in" height="3.59999in" version="1.1" style="shape-rendering:geometricPrecision; text-rendering:geometricPrecision; image-rendering:optimizeQuality; fill-rule:evenodd; clip-rule:evenodd"
viewBox="0 0 3600 3600"
 xmlns:xlink="http://www.w3.org/1999/xlink">
 <defs>
  <style type="text/css">
   <![CDATA[
    .fil0 {fill:none}
    .fil3 {fill:#00895D}
    .fil1 {fill:#656263}
    .fil2 {fill:#F36700}
    .fil4 {fill:white}
    .fil5 {fill:#656263;fill-rule:nonzero}
   ]]>
  </style>
 </defs>
 <g id="Layer_x0020_1">
  <metadata id="CorelCorpID_0Corel-Layer"/>
  <rect class="fil0" width="3600" height="3600"/>
  <g id="_2313566746256">
   <path class="fil1" d="M2682 1755l-25 93 -453 0c-9,6 -25,76 -28,90 110,0 221,0 331,0 55,0 112,1 166,0 59,-2 65,-50 76,-92 11,-43 24,-85 35,-128 19,-70 -54,-53 -108,-53 -111,0 -222,0 -333,0l26 -96 457 0 24 -89c-27,-4 -282,-1 -332,-1 -204,0 -209,-23 -241,93 -12,44 -24,86 -36,130 -19,69 55,53 108,53 111,0 222,0 333,0z"/>
   <path class="fil1" d="M1655 1569l455 1 -26 95 -451 0c-9,5 -10,20 -13,30l-29 104c-12,45 -24,93 -38,138l91 1 51 -183c48,-4 265,0 332,0 141,0 123,7 169,-165 11,-39 44,-107 -17,-110 -52,-4 -113,-1 -166,-1 -111,0 -223,0 -334,0l-24 90z"/>
   <path class="fil1" d="M846 1756c6,-6 8,-9 16,-15 8,-6 8,-7 16,-15l32 -28c19,-16 51,-48 69,-59l35 118 -168 -1zm-333 181c22,3 93,1 121,1 15,0 43,-32 56,-44 14,-11 48,-47 63,-47l289 0c2,12 22,88 30,91l87 0c-6,-29 -131,-446 -137,-457 -13,10 -20,16 -32,28 -24,24 -98,84 -128,113 -12,12 -18,17 -31,30 -6,5 -11,8 -17,13l-301 272z"/>
   <path class="fil2" d="M2923 1835l66 -64c12,-11 23,-20 34,-31l33 -33 -61 -126c-8,-11 -19,-35 -26,-48 -4,-10 -8,-17 -12,-26 -5,-9 -8,-19 -15,-25l-125 450c10,-4 92,-84 106,-97z"/>
   <path class="fil3" d="M2995 1581l61 126 -33 33c-11,11 -22,20 -34,31l-66 64 -26 98 31 -27c11,-10 19,-16 30,-29l90 -84c10,-10 19,-19 29,-29l60 -57c-8,-22 -66,-132 -84,-169 -6,-11 -22,-49 -31,-56l-27 99z"/>
   <path class="fil1" d="M1228 1590c13,2 22,-8 33,-13 28,-14 82,-38 112,-29 7,15 3,14 -12,15 -55,3 -94,24 -126,68 -17,24 0,35 13,16 62,-95 201,-78 229,13 5,19 7,40 6,61 -2,25 -12,36 -2,53 -11,3 -8,2 -13,16 -10,32 -28,38 -27,59 28,13 60,-54 44,-76 27,-8 36,-146 -47,-191 -41,-23 -59,-10 -58,-34 29,-6 71,18 86,31 21,19 36,43 45,77 5,18 8,35 8,54 0,6 -1,26 0,30 3,9 11,13 17,4 10,-14 9,-202 -143,-219 -38,-4 -73,4 -104,16 -14,6 -28,12 -41,19 -14,7 -32,15 -20,30z"/>
   <path class="fil1" d="M1333 1728c2,-26 13,-39 39,-41 34,-3 40,10 32,41l-71 0zm90 83c-74,0 -121,13 -99,-45 19,0 83,2 96,-2 20,-8 29,-44 25,-70 -8,-59 -93,-56 -126,-20 -27,29 -47,121 -32,148 13,23 38,27 71,27 43,0 57,5 65,-38z"/>
   <path class="fil1" d="M1347 1937c24,0 45,-4 65,-12 9,-4 16,-8 24,-13 9,-5 21,-14 12,-23 -12,-5 -29,10 -42,16 -69,35 -195,-5 -187,-118 1,-11 6,-28 6,-36 0,-18 -15,-19 -20,-3 -17,51 -1,103 23,136 14,18 24,25 49,37 24,11 41,16 70,16z"/>
   <path class="fil1" d="M1263 1696c18,0 16,-9 24,-24 18,-34 53,-51 95,-47 31,2 48,16 61,36 12,21 9,28 12,34 18,33 35,-34 -20,-74 -20,-14 -50,-20 -80,-17 -63,7 -104,69 -92,92z"/>
   <path class="fil1" d="M1349 1881c-23,-10 -70,-6 -86,-60 -13,-43 17,-99 7,-120 -22,-2 -20,15 -29,61 -13,68 14,120 82,135 19,4 29,5 26,-16z"/>
   <path class="fil4" d="M1333 1728l71 0c8,-31 2,-44 -32,-41 -26,2 -37,15 -39,41z"/>
   <path class="fil5" d="M521 2013l17 0 27 107 -20 0 -5 -23 -43 0 -12 23 -22 0 58 -107zm14 65l-9 -35 -19 35 28 0z"/>
   <path id="1" class="fil5" d="M632 2013l17 0 26 107 -19 0 -6 -23 -42 0 -13 23 -21 0 58 -107zm13 65l-8 -35 -19 35 27 0z"/>
   <path id="2" class="fil5" d="M706 2013l17 0c16,0 27,2 35,5 8,4 14,10 19,18 5,8 7,17 7,28 0,11 -2,21 -7,30 -5,9 -12,15 -20,20 -8,4 -19,6 -33,6l-33 0 15 -107zm17 18l-9 70 6 0c11,0 18,-1 23,-2 6,-3 11,-7 15,-13 4,-6 6,-13 6,-22 0,-7 -1,-13 -4,-18 -3,-4 -7,-8 -12,-11 -5,-2 -11,-4 -20,-4l-5 0z"/>
   <polygon id="3" class="fil5" points="810,2013 830,2013 825,2053 861,2053 867,2013 887,2013 872,2120 852,2120 859,2071 822,2071 815,2120 795,2120 "/>
   <path id="4" class="fil5" d="M948 2013l17 0 27 107 -20 0 -6 -23 -42 0 -12 23 -22 0 58 -107zm14 65l-9 -35 -19 35 28 0z"/>
   <path id="5" class="fil5" d="M1058 2013l17 0 27 107 -19 0 -6 -23 -43 0 -12 23 -21 0 57 -107zm14 65l-9 -35 -18 35 27 0z"/>
   <path id="6" class="fil5" d="M1134 2013l18 0c12,0 20,1 24,3 6,2 11,6 14,10 3,4 4,10 4,16 0,7 -2,13 -6,19 -5,5 -12,9 -21,11l24 48 -21 0 -23 -47 -1 0 -7 47 -20 0 15 -107zm14 43c11,-1 18,-2 21,-4 3,-2 5,-5 5,-10 0,-2 -1,-4 -2,-6 -1,-2 -3,-3 -6,-4 -2,0 -7,-1 -15,-1l-3 25z"/>
   <polygon id="7" class="fil5" points="1259,2013 1317,2013 1315,2032 1277,2032 1274,2054 1312,2054 1309,2073 1272,2073 1268,2101 1306,2101 1303,2120 1245,2120 "/>
   <polygon id="8" class="fil5" points="1338,2013 1356,2013 1395,2086 1405,2013 1424,2013 1410,2120 1392,2120 1353,2046 1343,2120 1324,2120 "/>
   <path id="9" class="fil5" d="M1485 2013l17 0 27 107 -20 0 -5 -23 -43 0 -12 23 -22 0 58 -107zm14 65l-9 -35 -19 35 28 0z"/>
   <path id="10" class="fil5" d="M1559 2013l17 0c10,0 18,1 22,3 5,2 9,6 12,10 3,5 5,10 5,15 0,5 -1,9 -3,13 -2,4 -5,7 -9,10 9,6 14,15 14,26 0,6 -2,11 -5,16 -3,5 -7,8 -11,10 -5,3 -11,4 -19,4l-38 0 15 -107zm15 42l3 0c6,0 9,0 11,-1 2,-1 4,-2 5,-4 1,-3 2,-5 2,-8 0,-2 0,-4 -2,-6 -1,-2 -2,-3 -4,-4 -2,0 -6,-1 -12,-1l-3 24zm-7 46l12 0c7,0 11,-1 14,-3 3,-3 4,-6 4,-10 0,-3 -1,-6 -3,-8 -1,-3 -4,-4 -6,-5 -3,-1 -9,-2 -17,-2l-4 28z"/>
   <polygon id="11" class="fil5" points="1646,2013 1666,2013 1654,2101 1687,2101 1685,2120 1631,2120 "/>
   <polygon id="12" class="fil5" points="1710,2013 1768,2013 1765,2032 1728,2032 1725,2054 1762,2054 1760,2073 1722,2073 1718,2101 1756,2101 1754,2120 1695,2120 "/>
   <path id="13" class="fil5" d="M1789 2013l17 0c16,0 28,2 36,5 7,4 14,10 19,18 4,8 7,17 7,28 0,11 -3,21 -8,30 -5,9 -12,15 -20,20 -7,4 -18,6 -32,6l-34 0 15 -107zm18 18l-10 70 7 0c10,0 17,-1 22,-2 6,-3 12,-7 15,-13 4,-6 6,-13 6,-22 0,-7 -1,-13 -4,-18 -3,-4 -6,-8 -11,-11 -5,-2 -12,-4 -20,-4l-5 0z"/>
   <path id="14" class="fil5" d="M1935 2013l19 0c12,0 20,1 24,3 6,2 11,6 14,10 3,4 4,10 4,16 0,6 -2,12 -5,17 -4,5 -8,9 -14,12 -6,2 -16,3 -30,4l-6 45 -20 0 14 -107zm15 43c11,0 18,-1 21,-4 3,-2 5,-5 5,-10 0,-2 -1,-4 -2,-6 -1,-2 -3,-3 -6,-3 -2,-1 -7,-2 -15,-2l-3 25z"/>
   <path id="15" class="fil5" d="M2055 2013l17 0 27 107 -20 0 -5 -23 -43 0 -12 23 -22 0 58 -107zm14 65l-9 -35 -19 35 28 0z"/>
   <polygon id="16" class="fil5" points="2114,2013 2135,2013 2152,2056 2182,2013 2205,2013 2160,2077 2154,2120 2133,2120 2139,2077 "/>
   <polygon id="17" class="fil5" points="2230,2013 2248,2013 2266,2087 2303,2013 2320,2013 2322,2120 2303,2120 2302,2056 2270,2120 2255,2120 2239,2053 2221,2120 2202,2120 "/>
   <polygon id="18" class="fil5" points="2355,2013 2413,2013 2410,2032 2372,2032 2369,2054 2407,2054 2405,2073 2367,2073 2363,2101 2401,2101 2399,2120 2340,2120 "/>
   <polygon id="19" class="fil5" points="2434,2013 2451,2013 2490,2086 2500,2013 2520,2013 2505,2120 2488,2120 2449,2046 2438,2120 2419,2120 "/>
   <polygon id="20" class="fil5" points="2530,2013 2595,2013 2593,2032 2571,2032 2559,2120 2539,2120 2551,2032 2528,2032 "/>
   <path id="21" class="fil5" d="M2703 2028l-15 13c-6,-8 -11,-12 -17,-12 -2,0 -4,1 -6,2 -2,2 -3,3 -3,6 0,2 1,4 3,6 1,3 6,8 14,16 4,5 7,8 8,10 3,4 6,8 7,12 1,4 2,7 2,11 0,9 -3,16 -9,22 -6,6 -14,9 -24,9 -14,0 -26,-7 -35,-21l15 -13c6,10 13,15 20,15 4,0 7,-2 9,-4 3,-2 4,-5 4,-8 0,-2 -1,-5 -2,-7 -2,-3 -6,-8 -13,-15 -7,-8 -12,-13 -14,-17 -3,-5 -4,-10 -4,-15 0,-7 2,-13 6,-18 6,-7 13,-10 22,-10 13,0 23,6 32,18z"/>
   <polygon id="22" class="fil5" points="2711,2013 2732,2013 2748,2056 2779,2013 2802,2013 2756,2077 2750,2120 2730,2120 2736,2077 "/>
   <path id="23" class="fil5" d="M2873 2028l-15 13c-6,-8 -11,-12 -16,-12 -3,0 -5,1 -7,2 -2,2 -2,3 -2,6 0,2 0,4 2,6 1,3 6,8 14,16 4,5 7,8 8,10 4,4 6,8 7,12 2,4 2,7 2,11 0,9 -3,16 -9,22 -6,6 -14,9 -23,9 -15,0 -27,-7 -36,-21l15 -13c7,10 13,15 21,15 3,0 6,-2 8,-4 3,-2 4,-5 4,-8 0,-2 -1,-5 -2,-7 -2,-3 -6,-8 -13,-15 -7,-8 -11,-13 -14,-17 -3,-5 -4,-10 -4,-15 0,-7 2,-13 6,-18 6,-7 13,-10 22,-10 13,0 24,6 32,18z"/>
   <polygon id="24" class="fil5" points="2882,2013 2948,2013 2945,2032 2923,2032 2911,2120 2891,2120 2903,2032 2880,2032 "/>
   <polygon id="25" class="fil5" points="2958,2013 3015,2013 3013,2032 2975,2032 2972,2054 3010,2054 3008,2073 2970,2073 2966,2101 3004,2101 3002,2120 2943,2120 "/>
   <polygon id="26" class="fil5" points="3044,2013 3063,2013 3081,2087 3118,2013 3135,2013 3136,2120 3118,2120 3117,2056 3085,2120 3070,2120 3053,2053 3036,2120 3017,2120 "/>
  </g>
 </g>
</svg>
