<?xml version="1.0" encoding="utf-8"?>
<!-- Generator: Adobe Illustrator 26.0.3, SVG Export Plug-In . SVG Version: 6.00 Build 0)  -->
<svg version="1.0" id="Layer_1" xmlns="http://www.w3.org/2000/svg" xmlns:xlink="http://www.w3.org/1999/xlink" x="0px" y="0px"
	 viewBox="0 0 257.9 190.2" style="enable-background:new 0 0 257.9 190.2;" xml:space="preserve">
<style type="text/css">
	.st0{fill:#37348B;}
	.st1{fill:#EF7E17;}
	.st2{fill:#FEFEFE;}
	.st3{fill:none;}
</style>
<path class="st0" d="M37.1,58.7h183.6v72.8l0,0h-140c2.3,0,4.5-0.2,6.8-0.6c7.1-1.3,13.8-4.3,19.4-8.8c2.4-1.9,4.6-4.1,6.5-6.6
	c2.9-3.7,5.2-7.8,6.7-12.2c0.3-0.9,0.5-1.7,0.8-2.5l-0.3,0.4l-0.2,0.7c0-0.4,0.1-0.8,0.1-1.2c0.4,0,0.3-0.5,0.5-0.7
	c0.6-2.8,1-5.6,1.1-8.4c0-10.6,0-21.2,0-31.8h-1.6c-24.4,0-48.8,0-73.1,0c-3-0.1-5.9-0.1-8.9-0.1h-1.4V58.7 M129.1,76.1
	c0,1.8,0,3.7,0,5.6c-0.1,1,0.6,2,1.5,2.4c1,0.4,2.2,0.2,3-0.5c0.5-0.6,0.8-1.5,0.7-2.3c0-1.7,0-3.4,0-5.1c-0.5,0-0.9,0-1.4,0
	c0,1.6,0,3.3,0,4.9c0,0.5,0,1.1-0.4,1.4c-0.5,0.5-1.3,0.4-1.8-0.1c-0.1-0.1-0.2-0.3-0.3-0.5c-0.2-1.9,0-3.8-0.1-5.7L129.1,76.1
	 M135.2,76.1v1.4h1.9c0,2.2,0,4.4,0,6.5h1.3c0-2.2,0-4.3,0-6.5h2c0-0.5,0-0.9,0-1.4C138.8,76.1,137,76.1,135.2,76.1 M141.2,76.1
	c0,2.6,0,5.3,0,7.9h1.4c0-2.6,0-5.3,0-7.9L141.2,76.1 M156.1,76c0,2.6,0,5.3,0,7.9h1.4c0-2.6,0-5.3,0-7.9L156.1,76 M164.5,76.3
	c-0.3,0.6-0.4,1.2-0.4,1.9h-0.7c0,0.4,0,0.8,0,1.2h0.7c0,1.5,0,3,0,4.5h1.3c0-1.5,0-3,0-4.5h1c0-0.4,0-0.8,0-1.2h-1
	c0-0.3,0-0.7,0.2-1c0.3-0.1,0.6-0.1,0.9-0.1c0.1-0.4,0.1-0.7,0.2-1.1C166,75.9,165.1,75.7,164.5,76.3 M180.7,77.1c0,0.4,0,0.8,0,1.1
	h-0.6c0,0.4,0,0.8,0,1.2h0.6c0,1.3,0,2.6,0.1,3.8c0.3,0.9,1.4,0.9,2.1,0.6c0-0.4,0-0.8-0.1-1.2c-0.3,0-0.7,0.2-0.8-0.2
	c-0.1-1,0-2,0-3h0.9v-1.2h-1c0-0.7,0-1.4,0-2C181.5,76.5,181.1,76.8,180.7,77.1 M197.6,77.1v1.2h-0.6v1.2l0.6,0.1c0,1,0,2,0,3
	c0,0.4,0,1,0.4,1.2c0.5,0.4,1.3,0.5,1.8,0.1c0-0.4,0-0.8-0.1-1.1c-0.3,0-0.8,0.2-0.9-0.2c-0.1-1,0-2,0-3h0.9c0-0.4,0-0.8,0-1.2H199
	v-2C198.6,76.5,198.1,76.8,197.6,77.1 M159.8,78.9c0-0.1,0-0.5,0-0.6c-0.4,0-0.8,0-1.2,0V84h1.3c0-1.2-0.1-2.5,0.1-3.7
	c0-0.5,0.6-1.1,1.2-0.9s0.5,0.7,0.5,1.1c0,1.2,0,2.3,0,3.5h1.3c0-1.4,0-2.9,0-4.3c0-0.9-0.6-1.6-1.5-1.6c0,0,0,0-0.1,0
	c-0.7-0.1-1.3,0.2-1.7,0.8 M168.7,78.2c-0.3,0.2-0.5,0.5-0.7,0.8c0-0.2,0-0.5,0-0.7h-1.2c0,1.9,0,3.8,0,5.7h1.3
	c-0.1-1.3,0-2.6,0.2-3.9c0.1-0.6,0.9-0.6,1.3-0.4l0.4-1.4C169.6,78.2,169.1,78,168.7,78.2 M170.2,79.8l1.2,0.2
	c0.1-0.5,0.6-0.8,1.1-0.7c0,0,0,0,0,0c0.4,0,0.5,0.5,0.6,0.9c-0.7,0.3-1.5,0.4-2.2,0.7c-0.8,0.5-1.1,1.6-0.5,2.4
	c0.2,0.3,0.5,0.6,0.8,0.7c0.7,0.2,1.5,0,2-0.6c0,0.8,0.9,0.4,1.4,0.5c-0.6-1.6,0-3.4-0.4-5c-0.4-1-1.7-1-2.6-0.8
	C170.8,78.4,170.3,79,170.2,79.8 M176.2,78.3c-0.9,0.4-1.2,1.5-0.8,2.3c0.1,0.3,0.3,0.5,0.6,0.7c0.7,0.3,1.5,0.6,2.2,0.8
	c0,0.1,0.1,0.3,0.1,0.4c-0.3,0.5-0.9,0.7-1.4,0.4c-0.1,0-0.1-0.1-0.1-0.1c-0.2-0.2-0.3-0.5-0.5-0.7c-0.4,0.1-0.8,0.1-1.2,0.2
	c0.1,0.4,0.3,0.7,0.5,1c0.7,0.7,1.9,1,2.8,0.6c1-0.4,1.4-1.5,1-2.5c-0.1-0.1-0.1-0.3-0.2-0.4c-0.7-0.7-1.7-0.7-2.6-1.1
	c0-0.1-0.1-0.2-0.1-0.3c0.3-0.8,1.5-0.5,1.8,0.2l1.2-0.3c-0.1-0.6-0.5-1-1-1.3C177.7,78,176.9,78,176.2,78.3 M184.7,78.9v-0.6h-1.3
	c0,1.9,0,3.8,0,5.7h1.3c0-1,0-2.1,0.1-3.2c0-0.4,0.1-0.8,0.3-1.1c0.3-0.2,0.7-0.1,1.1,0c0.2-0.4,0.3-0.9,0.3-1.3
	c-0.6-0.4-1.4-0.3-1.8,0.3C184.7,78.7,184.6,78.8,184.7,78.9 M187,78.2c0,1.4,0,2.8,0,4.1c-0.1,0.7,0.4,1.4,1.1,1.7
	c0.8,0.2,1.5-0.1,2-0.8c0,0.2,0,0.5,0,0.7h1.2c0-1.9,0-3.8,0-5.7H190c0,1.2,0.1,2.5-0.1,3.8c0,0.5-0.6,1.1-1.2,0.8s-0.5-0.7-0.5-1.1
	c0-1.2,0-2.3,0-3.5L187,78.2 M192.9,78.8c-0.6,0.7-0.8,1.6-0.7,2.5c-0.1,0.9,0.2,1.7,0.8,2.4c0.8,0.7,1.9,0.7,2.8,0.2
	c0.5-0.4,0.8-1,0.9-1.7l-1.3-0.3c-0.1,0.3-0.2,0.7-0.5,1c-0.4,0.2-0.9,0.1-1.1-0.3c0,0,0,0,0,0c-0.3-0.6-0.4-1.3-0.2-2
	c0-0.5,0.4-1.2,1.1-1.1c0.6,0.1,0.6,0.5,0.8,0.9l1.3-0.3c-0.1-0.7-0.5-1.2-1.1-1.6C194.7,78,193.6,78.1,192.9,78.8 M207,79
	c0-0.2,0-0.5,0-0.6h-1.2c0,1.9,0,3.8,0,5.7h1.3c-0.1-1.3,0-2.6,0.1-3.8c0.1-0.4,0.6-0.7,1-0.6c0.1,0,0.2,0.1,0.3,0.2
	c0.1-0.5,0.3-0.9,0.4-1.4c-0.3-0.1-0.7-0.2-1-0.2C207.5,78.2,207.3,78.7,207,79 M210.2,78.5c-0.7,0.5-1.1,1.3-1.1,2.2
	c-0.1,1,0.1,2,0.7,2.8c0.7,0.7,1.8,0.9,2.8,0.4c0.5-0.4,0.8-0.9,1-1.4l-1.2-0.3c-0.2,0.3-0.4,0.8-0.8,0.8c-0.7,0-1-0.8-1.1-1.3h3.2
	c0.1-0.9-0.2-1.9-0.6-2.7C212.3,78.1,211.1,77.8,210.2,78.5 M200.4,78.3c0,1.4,0,2.7,0,4.1c-0.1,0.7,0.3,1.4,1,1.7
	c0.8,0.2,1.6-0.1,2.1-0.7V84h1.2c0-1.9,0-3.8,0-5.7h-1.3c0,1.3,0,2.6-0.1,3.9c-0.1,0.5-0.7,0.8-1.2,0.7c0,0-0.1,0-0.1,0
	c-0.1-0.3-0.2-0.5-0.3-0.8c-0.1-1.2,0-2.5,0-3.7L200.4,78.3 M144.9,89.5c0,2.6,0,5.3,0,7.9h1.3c0-1.2-0.1-2.4,0-3.6
	c0-0.6,0.5-1.2,1.1-1c0.4,0.1,0.6,0.6,0.6,1c0,1.2,0,2.4,0,3.6h1.3c0-1.4,0-2.8,0-4.1c0-0.7-0.4-1.3-1-1.6c-0.7-0.2-1.5,0-2,0.6
	c0-0.9,0-1.8,0-2.8L144.9,89.5 M212,89.5c0,0.9,0,1.8,0,2.7c-0.4-0.4-0.9-0.6-1.4-0.6c-0.9,0-1.6,0.7-1.8,1.6
	c-0.3,1-0.2,2.1,0.1,3.2c0.3,0.8,1,1.3,1.9,1.3c0.5-0.1,1-0.4,1.3-0.8c0,0.2,0,0.5,0,0.7h1.2c0-2.6,0-5.3,0-7.9L212,89.5
	 M128.6,89.5c0,0.5,0,0.9,0,1.4c0.6,0,1.3,0,2,0c0,2.2,0,4.4,0,6.5h1.3c0-2.2,0-4.4,0-6.5h2v-1.4H128.6 M161.5,89.5v7.9h1.3
	c0-2.6,0-5.3,0-7.9L161.5,89.5 M199.4,89.5c-0.9,2.6-1.7,5.3-2.6,7.9h1.5l0.5-1.8h2.6c0.2,0.6,0.4,1.2,0.6,1.8c0.5,0,1,0,1.5,0
	c-0.9-2.6-1.8-5.3-2.6-7.9L199.4,89.5 M134.9,92.2c-0.6,0.9-0.9,2-0.7,3.1c0,1.2,1,2.2,2.3,2.2c0.5,0,1-0.2,1.4-0.5
	c0.4-0.4,0.6-0.8,0.8-1.3l-1.3-0.2c-0.2,0.4-0.4,0.8-0.8,0.8c-0.7,0-0.9-0.8-1-1.4h3.2c0.1-1-0.2-2-0.8-2.9c-0.7-0.8-2-0.9-2.8-0.2
	C135.1,92,135,92.1,134.9,92.2 M140.1,92.1c-0.5,0.8-0.8,1.7-0.7,2.7c0,0.8,0.3,1.5,0.9,2.1c0.7,0.5,1.6,0.7,2.4,0.3
	c0.7-0.4,1.2-1.1,1.3-1.9l-1.3-0.3c-0.2,0.4-0.2,0.9-0.6,1c-0.4,0.2-0.9,0-1.1-0.5c0,0,0,0,0-0.1c-0.2-0.6-0.2-1.3-0.1-2
	c0.1-0.4,0.5-0.9,1-0.8s0.7,0.5,0.8,0.9c0.4-0.1,0.9-0.2,1.3-0.3c-0.1-0.7-0.6-1.3-1.2-1.7C141.9,91.2,140.9,91.4,140.1,92.1
	 M151.6,92.2c0-0.2,0-0.5,0-0.7h-1.3v5.8h1.3c0-1.2-0.1-2.4,0-3.6c0-0.6,0.5-1.2,1.1-1c0.6,0.2,0.6,0.7,0.6,1.2c0,1.1,0,2.3,0,3.4
	h1.3c0-1.4,0-2.9,0-4.3c0-0.7-0.5-1.4-1.3-1.5C152.7,91.3,152,91.6,151.6,92.2 M157.3,91.5c-1,0.4-1.7,1.3-1.7,2.3
	c-0.2,0.9,0.1,1.9,0.6,2.7c0.8,1,2.3,1.1,3.3,0.3c0.1,0,0.1-0.1,0.2-0.1c1-1.2,1.1-3,0.2-4.4C159.3,91.5,158.3,91.2,157.3,91.5
	 M165.3,91.5c-1,0.4-1.7,1.3-1.7,2.3c-0.2,0.9,0.1,1.9,0.6,2.7c0.8,1,2.3,1.1,3.3,0.3c0.1,0,0.1-0.1,0.1-0.1c1.1-1.2,1.1-3,0.2-4.4
	C167.3,91.5,166.3,91.2,165.3,91.5 M169.3,92.9c-0.3,0.9-0.3,1.9,0,2.8c0.2,0.8,0.8,1.4,1.6,1.5c0.6,0,1.2-0.3,1.6-0.8
	c0,0.6,0.2,1.3-0.4,1.8c-0.5,0.3-1.1,0.2-1.4-0.3c0-0.1-0.1-0.1-0.1-0.2l-1.4-0.2c-0.1,0.8,0.4,1.5,1.1,1.8c0.9,0.3,1.9,0.2,2.7-0.2
	c0.6-0.6,0.8-1.4,0.7-2.3c0-1.8,0-3.6,0-5.4h-1.2v0.6c-0.4-0.4-0.9-0.7-1.4-0.7C170.3,91.5,169.6,92.1,169.3,92.9 M204.9,92.4
	c0-0.3,0-0.5,0-0.8h-1.2v5.8h1.3c0-1.1,0-2.3,0-3.4c0-0.5,0.2-0.9,0.6-1.2c0.5-0.3,1.1,0.2,1.1,0.8c0.1,1.3,0,2.6,0,3.8h1.3
	c0-1.5,0-3,0-4.5c-0.1-0.8-0.8-1.5-1.6-1.4c0,0,0,0,0,0C205.8,91.6,205.2,91.9,204.9,92.4 M174.3,91.7c0.6,1.9,1.2,3.7,1.8,5.6
	c0.1,0.6-0.3,1.1-0.9,1.2c-0.2,0-0.4,0-0.5,0c0,0.4,0.1,0.8,0.1,1.2c0.5,0.1,1,0.1,1.5-0.1c0.5-0.3,0.9-0.8,1-1.4
	c0.6-2.1,1.3-4.3,2-6.4h-1.3c-0.4,1.3-0.7,2.6-1.1,3.9c-0.4-1.3-0.7-2.6-1.1-3.9L174.3,91.7 M130.1,103.1c-1.1,0.6-1.5,2.1-0.8,3.2
	c0.1,0.2,0.3,0.4,0.5,0.6c0.8,0.4,1.6,0.8,2.5,1c0.4,0.2,0.6,0.7,0.4,1.1c0,0,0,0,0,0c-0.4,0.6-1.2,0.8-1.9,0.4c0,0-0.1,0-0.1-0.1
	c-0.3-0.3-0.6-0.8-0.7-1.3c-0.4,0-0.9,0.1-1.3,0.2c0.1,0.8,0.4,1.6,0.9,2.2c0.9,0.6,1.9,0.7,2.9,0.4c1.6-0.5,2-2.8,1-4
	c-0.8-0.9-2-0.8-3-1.4c-0.2-0.2-0.4-0.7-0.1-0.9c0.4-0.4,1-0.5,1.5-0.3c0.4,0.1,0.5,0.7,0.7,1c0.4,0,0.9,0,1.3-0.1
	c0-0.8-0.3-1.5-0.9-2C132,102.7,131,102.6,130.1,103.1 M149,102.9c0,0.5,0,1,0,1.4h1.3c0-0.5,0-1,0-1.4L149,102.9 M181.8,103v7.8
	h4.6c0-0.4,0-0.9,0-1.3c-1.1,0-2.2,0-3.3,0c0-2.2,0-4.3,0-6.5h-1.2 M187.4,102.9c0,0.5,0,1,0,1.4h1.3c0-0.5,0-1,0-1.4L187.4,102.9
	 M198.1,102.9c0,0.5,0,1,0,1.4h1.3c0-0.5,0-1,0-1.4L198.1,102.9 M211.8,102.9c0,0.9,0,1.8,0,2.6c-0.4-0.4-0.9-0.6-1.4-0.6
	c-0.9,0.1-1.6,0.7-1.8,1.5c-0.3,0.9-0.3,1.9,0,2.9c0.2,0.9,0.9,1.6,1.9,1.6c0.6-0.1,1.1-0.3,1.4-0.8c0,0.2,0,0.5,0,0.6h1.2v-7.9
	L211.8,102.9 M200.6,103.9c0,0.4,0,0.8,0,1.1h-0.6v1.2h0.6c0,1,0,2.1,0,3.1c0,0.4,0,1,0.4,1.2c0.5,0.5,1.2,0.3,1.8,0.1l-0.1-1.2
	c-0.3,0-0.7,0.3-0.8-0.1c-0.1-1,0-2-0.1-3.1h0.9v-1.2h-0.9v-2C201.5,103.4,201.1,103.7,200.6,103.9 M135.6,105.6
	c-0.6,0.7-0.9,1.5-0.8,2.4c-0.1,0.9,0.2,1.7,0.7,2.4c0.7,0.7,1.7,0.9,2.6,0.5c0.6-0.3,1-0.9,1.2-1.5L138,109
	c-0.2,0.4-0.4,0.9-0.9,0.8c-0.7,0-0.9-0.8-1-1.3c1.1,0,2.1,0,3.2,0c0.1-0.9-0.2-1.9-0.6-2.7c-0.7-0.9-2-1.1-2.9-0.4
	C135.7,105.5,135.7,105.5,135.6,105.6 M140.3,105.1c0,1.9,0,3.8,0,5.7h1.3c0-1.2,0-2.3,0.1-3.5c0-0.5,0.3-0.9,0.8-1l0.6,0.3
	c0.1-0.4,0.3-0.8,0.4-1.2c0.6,1.8,1.2,3.6,1.9,5.4h1.2c0.6-1.9,1.2-3.8,1.9-5.7l-1.4,0c-0.4,1.2-0.8,2.5-1.1,3.8
	c-0.3-1.3-0.8-2.5-1.1-3.8c-0.5,0-1,0-1.5,0c-0.4,0-0.8-0.2-1.1,0c-0.2,0.2-0.4,0.4-0.6,0.6c0-0.2,0-0.5,0-0.6L140.3,105.1
	 M149.1,105.1c0,1.9,0,3.8,0,5.7h1.3c0.1-1.9,0-3.8,0-5.7L149.1,105.1 M152.1,105.6c-0.5,0.6-0.8,1.4-0.8,2.1
	c-0.1,0.9,0.1,1.8,0.7,2.5c0.7,0.8,2,1,2.9,0.4c0.5-0.4,0.9-1.1,1-1.8l-1.2-0.3c-0.1,0.3-0.3,0.6-0.4,0.9c-0.4,0.3-0.9,0.2-1.2-0.2
	c0-0.1-0.1-0.1-0.1-0.2c-0.2-0.7-0.3-1.4-0.1-2.2c0.1-0.5,0.5-0.8,1-0.7c0.1,0,0.1,0,0.2,0.1c0.3,0.1,0.4,0.5,0.5,0.8l1.3-0.3
	c-0.1-0.6-0.5-1.2-1-1.6C153.9,104.8,152.9,104.9,152.1,105.6 M157.2,105.5c-0.6,0.7-0.9,1.5-0.8,2.4c-0.1,0.8,0.2,1.7,0.7,2.4
	c0.7,0.7,1.7,0.9,2.6,0.5c0.6-0.3,1-0.9,1.2-1.5l-1.3-0.3c-0.2,0.3-0.4,0.9-0.9,0.8c-0.7,0-0.9-0.8-1-1.3c1.1,0,2.1,0,3.2,0
	c0.1-0.9-0.2-1.9-0.6-2.7c-0.6-0.9-1.9-1.1-2.8-0.4C157.4,105.4,157.3,105.4,157.2,105.5 M162.6,105.2c-0.9,0.4-1.2,1.5-0.8,2.4
	c0.1,0.1,0.2,0.3,0.3,0.4c0.7,0.7,1.8,0.6,2.5,1.1c0.1,0.6-0.5,0.9-1,0.8c-0.5-0.1-0.7-0.5-0.9-0.9l-1.3,0.2c0.1,0.5,0.4,1,0.9,1.4
	c0.7,0.4,1.6,0.5,2.4,0.3c1-0.4,1.5-1.5,1.1-2.4c-0.1-0.2-0.2-0.3-0.3-0.5c-0.7-0.6-1.7-0.7-2.6-1.1c-0.1-0.2-0.1-0.4,0-0.6
	c0.1-0.1,0.2-0.1,0.2-0.1c0.5-0.2,1.1,0.1,1.4,0.6l1.2-0.2c-0.1-0.6-0.5-1.1-1.1-1.4C164,104.9,163.3,104.9,162.6,105.2
	 M187.5,105.1c0,1.9,0,3.8,0,5.7h1.3v-5.7L187.5,105.1 M189.9,105.1c0,1.9,0,3.8,0,5.7h1.3c0-1.2,0-2.3,0-3.5c0-0.5,0.3-1.2,0.9-1.1
	c0.6,0,0.6,0.6,0.6,1c0,1.2,0,2.4,0,3.6h1.3c0.1-1.5-0.3-3.1,0.3-4.4c0.2-0.1,0.5-0.1,0.8-0.2c0.4,0.1,0.4,0.6,0.4,1
	c0.1,1.2,0,2.4,0,3.7h1.3c0-1.4,0-2.8,0-4.2c0-0.8-0.6-1.5-1.4-1.6c-0.6,0-1.3,0.3-1.6,0.8c-0.2-0.4-0.6-0.7-1-0.8
	c-0.7-0.1-1.4,0.2-1.8,0.7v-0.7H189.9 M198.1,105.1c0,1.9,0,3.8,0,5.7h1.3c0-1.9,0-3.8,0-5.7L198.1,105.1 M204.1,105.6
	c-0.6,0.7-0.9,1.5-0.9,2.4c-0.1,0.8,0.2,1.7,0.7,2.4c0.7,0.7,1.7,0.9,2.6,0.5c0.6-0.3,1-0.9,1.2-1.5c-0.4-0.1-0.8-0.2-1.2-0.2
	c-0.3,0.3-0.4,0.9-0.9,0.8c-0.7,0-0.9-0.8-1-1.3c1.1,0,2.1,0,3.2,0c0-0.9-0.2-1.9-0.6-2.7c-0.7-0.9-2-1-2.9-0.3
	C204.2,105.5,204.2,105.5,204.1,105.6 M109.5,69.6c0.8-0.3,1.6-0.7,2.5-1c-4.7,8.5-9.4,16.9-14.1,25.4c-0.8,1.3-1.4,2.7-2.3,4
	c-0.8,0-1.7,0-2.5,0c5.2-9.3,10.4-18.6,15.6-27.9C108.9,69.8,109.2,69.6,109.5,69.6 M81,79.7c2.6-1.3,5.1-2.8,7.7-4.1
	c0,7.4,0,14.8,0,22.2c-13.6,0-27.2,0-40.8,0c2.2-1.3,4.5-2.5,6.7-3.7c1.5,1.3,3.6,1.7,5.4,0.9c0.9-0.4,1.6-1,2.2-1.7
	c0,0.6,0,1.2,0,1.8c1.1,0.1,2.1,0.1,3.2,0.1c0-2.3,0-4.6,0-6.9c1.3-0.7,2.5-1.4,3.8-2c0,2,0,4,0,6.1c-0.1,1.1,0.4,2.1,1.3,2.7
	c1.5,0.6,3.2,0.6,4.7,0c-0.1-0.9-0.2-1.8-0.3-2.7c-0.6,0.2-1.2,0.3-1.8,0.2c-0.5-0.2-0.5-0.8-0.5-1.2c0-2.1,0-4.2,0-6.4
	c0.8,0,1.6,0,2.3,0c0-0.7,0-1.3,0-2c1.7-0.7,3.2-1.8,4.9-2.5h1l0.1-0.7 M77.4,82.3c0,4.3,0,8.6,0,12.9c1.2,0,2.3,0,3.4,0v-13
	c-1.2,0-2.3,0-3.4,0 M210.3,80.6c0-0.6,0.3-1.3,1-1.3s0.8,0.8,0.9,1.3L210.3,80.6 M171.5,81.8c0.5-0.3,1-0.4,1.5-0.5
	c0,0.6,0,1.5-0.8,1.7S171,82.2,171.5,81.8 M58,92.3c1.3-0.7,2.6-1.4,3.9-2.1c0,0.4-0.1,0.8-0.1,1.2C61,92.7,59.3,93.2,58,92.3
	c-0.1,0-0.1,0-0.2,0L58,92.3 M200.1,91.5c0.4,0.9,0.6,1.8,0.9,2.8h-1.7C199.5,93.3,199.8,92.4,200.1,91.5 M135.5,94
	c0.1-0.6,0.3-1.3,1-1.3c0.7,0,0.9,0.8,0.9,1.3H135.5 M157.7,92.9c0.4-0.2,1,0,1.2,0.4c0.3,0.6,0.4,1.3,0.2,2
	c-0.1,0.5-0.6,0.9-1.1,0.9c-0.6-0.1-1.1-0.7-1.1-1.3C156.8,94.2,157.1,93.4,157.7,92.9 M165.7,92.9c0.6-0.2,1.2,0.1,1.4,0.7
	c0,0.1,0,0.2,0.1,0.2c0.3,0.8,0,1.8-0.6,2.4c-0.6,0.4-1.3-0.2-1.4-0.9C164.9,94.5,164.9,93.4,165.7,92.9 M171,92.9
	c0.6-0.4,1.3,0.1,1.4,0.7c0.3,0.8,0.1,1.8-0.6,2.4c-0.6,0.4-1.3-0.3-1.3-0.9C170.3,94.4,170.5,93.5,171,92.9 M210.5,92.9
	c0.3-0.2,0.7-0.2,1,0c0.4,0.5,0.6,1.2,0.5,1.8c0,0.6-0.2,1.3-0.8,1.5s-1.1-0.4-1.1-0.9C209.8,94.5,210,93.6,210.5,92.9 M66.8,101.7
	c0.7,0,1.4,0,2.1,0c0,3.3,0,6.6,0,9.9h-2.1C66.8,108.3,66.8,105,66.8,101.7 M70.8,101.7c0.7,0,1.4,0,2.1,0c0,3.3,0,6.6,0,9.9h-2.1
	C70.8,108.3,70.8,105,70.8,101.7 M84.4,102.2c1.3-0.7,2.9-0.9,4.3-0.5c1.3,0.3,2.2,1.5,2.3,2.8l-2.1,0.1c-0.2-0.5-0.4-1.2-1.1-1.3
	c-0.8-0.2-1.7-0.1-2.3,0.4c-0.3,0.3-0.3,0.8,0,1c0.1,0.1,0.1,0.1,0.2,0.1c1.5,0.7,3.3,0.6,4.6,1.7c1.2,1.2,1.2,3.1,0,4.2
	c-0.1,0.1-0.3,0.3-0.4,0.4c-1.4,0.7-3,0.9-4.4,0.4c-1.4-0.4-2.5-1.7-2.6-3.2c0.7-0.1,1.3-0.2,2-0.2c0,0.8,0.6,1.5,1.4,1.8
	c0.8,0.3,1.7,0.1,2.4-0.4c0.4-0.3,0.6-0.9,0.2-1.4c-0.1-0.1-0.2-0.2-0.4-0.3c-1.5-0.7-3.4-0.6-4.6-1.9c-1-1-0.9-2.7,0.2-3.6
	C84.2,102.3,84.3,102.3,84.4,102.2 M47.8,101.7c0.7,0,1.4,0,2,0c0.1,2.3-0.1,4.6,0.1,6.8c0.1,1.9,3.5,2.1,3.8,0.3
	c0.1-2.4,0.1-4.8,0-7.1H56c0,2.2,0,4.4,0,6.6c0.1,0.9-0.2,1.8-0.8,2.5c-1.1,0.9-2.5,1.2-3.9,1c-1.1,0-2.1-0.5-2.7-1.3
	c-0.5-0.7-0.7-1.5-0.6-2.4C47.9,106,47.9,103.9,47.8,101.7 M57.5,101.7c2.7,0,5.4,0,8.1,0c0,0.6,0,1.1,0,1.7c-1,0-2,0-3,0
	c0,2.7,0,5.5,0,8.2h-2.1c0-2.7,0-5.5,0-8.2c-1,0-2,0-3,0C57.5,102.9,57.5,102.3,57.5,101.7 M74.1,101.7c2.7,0,5.4,0,8.1,0
	c0,0.6,0,1.1,0,1.7c-1,0-2,0-2.9,0c0,2.7,0,5.5,0,8.2h-2.1c0-2.7,0-5.5,0-8.2c-1,0-2,0-3,0L74.1,101.7 M93.1,101.8c0.7,0,1.3,0,2,0
	c0.1,0.3,0.1,0.6,0.1,0.8c0,2.4,0,4.9,0,7.3c1.7,0,3.4,0,5,0c0,0.6,0.1,1.1,0.1,1.7c-2.4,0-4.8,0-7.2,0
	C93.1,108.4,93.1,105.2,93.1,101.8 M136.1,107.6c0.1-0.5,0.3-1.3,1-1.3c0.7,0,0.8,0.8,1,1.3L136.1,107.6 M157.7,107.6
	c0.1-0.6,0.3-1.3,1-1.3s0.8,0.8,0.9,1.3L157.7,107.6 M204.7,107.6c0.1-0.6,0.3-1.3,1-1.3s0.8,0.8,0.9,1.3L204.7,107.6 M210.6,106.3
	c0.5-0.2,1,0.1,1.2,0.6c0,0,0,0,0,0.1c0.2,0.7,0.2,1.5,0,2.2c-0.1,0.5-0.6,0.7-1.1,0.6c-0.1,0-0.1-0.1-0.2-0.1
	c-0.5-0.5-0.7-1.2-0.6-1.9C209.9,107.2,210.2,106.6,210.6,106.3L210.6,106.3z"/>
<path class="st1" d="M37.1,59.6h1.4c0,9.8,0,19.5,0.1,29.2c0,2.5,0.1,5.1,0.5,7.6c1,6.8,3.8,13.2,8.2,18.5
	c6.1,7.5,14.6,12.6,24,14.5c9.4,1.9,19.1,0.6,27.6-3.8c5.1-2.6,9.5-6.2,13.1-10.7c5.6-6.9,8.7-15.4,8.6-24.3
	c0-10.4-0.1-20.7-0.1-31.1h1.5c0,10.6,0,21.2,0,31.8c-0.1,2.8-0.4,5.6-1.1,8.4c-0.1,0.2-0.1,0.7-0.5,0.7c0,0.4-0.1,0.8-0.1,1.2
	l0.2-0.7l0.3-0.4c-0.3,0.8-0.6,1.7-0.8,2.5c-1.5,4.4-3.8,8.6-6.7,12.2c-1.9,2.4-4,4.6-6.4,6.6c-5.6,4.5-12.3,7.6-19.4,8.9
	c-2.2,0.4-4.5,0.6-6.8,0.6h-2.6c-3.6,0-7.2-0.6-10.7-1.6c-6.2-1.7-12-4.8-16.9-9c-4-3.5-7.2-7.8-9.4-12.7c-1.2-2.6-2.2-5.4-2.9-8.2
	c-0.6-2.6-1-5.2-1.2-7.9V59.6 M115.7,65.4c0.9-0.3,1.9-0.5,2.8-0.7c-5.6,10-11.2,20.1-16.7,30.1c-0.6,1-1.1,2.1-1.7,3.1h-2.4
	c0.2-0.6,0.5-1.2,0.8-1.7c4.5-8.1,9-16.2,13.6-24.2C113.3,69.7,114.5,67.6,115.7,65.4 M102,74.2c1-0.4,2-0.7,3-1
	c-4.6,8.2-9.2,16.4-13.7,24.6c-0.8,0-1.6,0-2.4,0c0-0.2,0.1-0.5,0.2-0.7C93.5,89.5,97.8,81.9,102,74.2 M48,75.6
	c13.6,0,27.3,0,40.9,0c20.4,0-0.1,0-0.1,0c-2.6,1.3-5.1,2.8-7.7,4.1c0-0.8-0.1-1.6-0.1-2.4c-1.1,0-2.2,0-3.3,0c-0.1,1-0.1,2.1,0,3.1
	c0.8,0,1.5,0,2.3,0c-1.7,0.7-3.2,1.8-4.9,2.5c0-0.2,0-0.5,0-0.8h-2.3c0-1.5,0-3.1,0-4.6c-1.2,0.7-2.3,1.3-3.5,2c0,0.9,0,1.7,0,2.6
	h-1.6c0,0.9,0,1.8,0,2.7h1.5c0,0.4,0,0.8,0,1.3c-1.3,0.7-2.5,1.4-3.8,2c0-2,0-4,0-6H62c0,2.5,0,5,0,7.6c0,0.5-0.1,1.1-0.2,1.6
	c0-0.4,0-0.8,0.1-1.2c-1.3,0.7-2.6,1.5-3.9,2.2h-0.2c-0.3-0.3-0.5-0.6-0.5-1c-0.1-1.1-0.2-2.3-0.2-3.4c0-1.9,0-3.8,0-5.7
	c-1.2,0-2.3,0-3.5,0c0,2.6,0,5.3,0,7.9c-0.1,1.4,0.2,2.8,1,4c-2.2,1.2-4.5,2.4-6.7,3.7c-0.1-7.4,0-14.8,0-22.3L48,75.6z"/>
<path class="st2" d="M38.6,59.6c3,0,5.9-0.1,8.9,0.1c24.4,0,48.7,0,73.1,0c0,10.4,0,20.7,0.1,31.1c0,8.9-3,17.5-8.7,24.3
	c-3.6,4.4-8.1,8.1-13.2,10.6c-8.5,4.3-18.2,5.7-27.6,3.8c-9.4-1.9-17.9-7-24-14.5c-4.3-5.3-7.2-11.7-8.2-18.5
	c-0.3-2.5-0.5-5.1-0.5-7.6C38.6,79.1,38.6,69.3,38.6,59.6 M115.7,65.3c-1.2,2.2-2.4,4.4-3.6,6.6c-4.5,8.1-9.1,16.2-13.6,24.3
	c-0.3,0.5-0.6,1.1-0.8,1.7h2.4c0.7-1,1.1-2.1,1.7-3.1c5.6-10.1,11.2-20.1,16.8-30.1C117.6,64.8,116.6,65,115.7,65.3 M109.4,69.4
	c-0.3,0.1-0.6,0.3-0.8,0.5c-5.2,9.3-10.4,18.6-15.6,27.9c0.8,0,1.7,0,2.5,0c0.8-1.3,1.5-2.7,2.3-4c4.7-8.5,9.4-16.9,14.1-25.4
	C111.1,68.8,110.3,69.1,109.4,69.4 M102,74.2c-4.3,7.6-8.6,15.3-13,22.9c-0.1,0.2-0.2,0.5-0.2,0.7c0.8,0,1.6,0,2.4,0
	c4.5-8.2,9.2-16.4,13.7-24.6C103.9,73.5,102.9,73.8,102,74.2 M48,75.6c0,7.4,0,14.9,0,22.3c13.6,0,27.2,0,40.8,0
	c0-7.4,0-14.8,0-22.2c0,0,0.1,0,0.1,0C75.2,75.6,61.6,75.6,48,75.6 M66.8,101.7c0.1,3.3,0,6.6,0,9.9h2.1c0-3.3,0-6.6,0-9.9
	C68.2,101.7,67.5,101.7,66.8,101.7 M70.8,101.7c0,3.3,0,6.6,0,9.9h2.1c0-3.3,0-6.6,0-9.9C72.1,101.8,71.4,101.8,70.8,101.7
	 M84.4,102.3c-1.2,0.8-1.4,2.4-0.6,3.6c0.1,0.1,0.1,0.2,0.2,0.3c1.2,1.3,3.1,1.1,4.6,1.9c0.5,0.2,0.7,0.8,0.5,1.3
	c-0.1,0.1-0.2,0.3-0.3,0.4c-0.7,0.5-1.6,0.7-2.4,0.4c-0.8-0.3-1.4-1-1.4-1.9c-0.7,0-1.3,0.1-2,0.2c0.1,1.5,1.1,2.8,2.5,3.2
	c1.5,0.4,3.1,0.3,4.5-0.4c1.4-0.9,1.7-2.8,0.8-4.2c-0.1-0.1-0.2-0.3-0.3-0.4c-1.3-1.1-3.1-1-4.6-1.7c-0.4-0.1-0.6-0.6-0.4-0.9
	c0-0.1,0.1-0.2,0.1-0.2c0.7-0.5,1.5-0.6,2.3-0.4c0.7,0.1,0.9,0.8,1.1,1.3l2.1-0.1c0-1.3-1-2.5-2.3-2.8
	C87.3,101.3,85.8,101.4,84.4,102.3 M47.9,101.7c0,2.1,0,4.2,0,6.4c-0.1,0.8,0.2,1.7,0.6,2.4c0.7,0.8,1.7,1.3,2.7,1.3
	c1.4,0.2,2.8-0.1,3.8-1c0.6-0.7,0.9-1.6,0.8-2.5c0-2.2,0-4.4,0-6.6h-2.1c0.1,2.4,0.1,4.8,0,7.1c-0.4,1.8-3.8,1.6-3.8-0.3
	c-0.2-2.3,0-4.6-0.1-6.9C49.2,101.7,48.5,101.7,47.9,101.7 M57.5,101.7c0,0.6,0,1.1,0,1.7c1,0,2,0,3,0c0,2.7,0,5.5,0,8.2h2.1
	c0-2.7,0-5.5,0-8.2c1,0,2,0,3,0c0-0.6,0-1.1,0-1.7C62.8,101.7,60.1,101.7,57.5,101.7 M74.1,101.7v1.7c1,0,2,0,3,0c0,2.7,0,5.5,0,8.2
	h2.1c0-2.7,0-5.5,0-8.2c1,0,2,0,3,0c0-0.6,0-1.1,0-1.7C79.4,101.7,76.7,101.7,74.1,101.7 M93,101.8c0,3.3,0,6.6,0,9.8
	c2.4,0,4.8,0,7.2,0c0-0.6-0.1-1.1-0.1-1.7c-1.7,0-3.4,0-5,0c0-2.4,0-4.9,0-7.3c0-0.3,0-0.6-0.1-0.8C94.4,101.7,93.7,101.7,93,101.8
	 M129,76h1.3c0,1.9-0.1,3.8,0.1,5.7c0.2,0.7,0.9,1.1,1.6,0.9c0.2,0,0.3-0.1,0.5-0.3c0.4-0.4,0.4-0.9,0.4-1.4c0-1.6,0-3.3,0-4.9
	c0.5,0,0.9,0,1.4,0c0,1.7,0,3.4,0,5.1c0.1,0.8-0.2,1.6-0.7,2.3c-0.8,0.7-2,0.9-3,0.5c-1-0.4-1.6-1.3-1.5-2.4
	C129,79.7,129.1,77.8,129,76 M135.3,76c1.8,0,3.5,0,5.3,0c0,0.5,0,0.9,0,1.4h-2c0,2.2,0,4.4,0,6.5h-1.3c0-2.2,0-4.4,0-6.5h-1.9
	L135.3,76 M141.2,76h1.4c0,2.7,0,5.3,0,7.9h-1.4C141.2,81.3,141.2,78.6,141.2,76 M156.1,76h1.4c0,2.6,0,5.3,0,7.9h-1.4
	C156.1,81.3,156.1,78.7,156.1,76 M164.5,76.3c0.6-0.6,1.5-0.4,2.2-0.3c-0.1,0.4-0.1,0.7-0.2,1.1c-0.3-0.1-0.6,0-0.9,0.1
	c-0.1,0.3-0.2,0.7-0.2,1h1c0,0.4,0,0.8,0,1.2h-1c0,1.5,0,3,0,4.5h-1.3c0-1.5,0-3,0-4.5h-0.7c0-0.4,0-0.8,0-1.2h0.7
	C164,77.6,164.1,76.9,164.5,76.3 M180.6,77.1c0.4-0.3,0.9-0.6,1.3-0.9c0,0.7,0,1.4,0,2h0.9v1.2h-0.8c0,1,0,2,0,3
	c0.1,0.4,0.6,0.2,0.8,0.2c0,0.4,0.1,0.8,0.1,1.2c-0.7,0.4-1.9,0.3-2.1-0.6c-0.1-1.3-0.2-2.6-0.1-3.8H180c0-0.4,0-0.8,0-1.2h0.6
	C180.6,77.8,180.6,77.4,180.6,77.1 M197.6,77c0.4-0.3,0.8-0.6,1.3-0.8v2h0.9c0,0.4,0,0.8,0,1.2h-0.9c0,1-0.1,2,0,3
	c0.1,0.4,0.6,0.2,0.9,0.2c0,0.4,0.1,0.8,0.1,1.1c-0.6,0.3-1.3,0.3-1.8-0.1c-0.4-0.3-0.4-0.8-0.4-1.2c0-1,0-2,0-3l-0.6-0.1v-1.1h0.6
	v-1.2 M77.5,77.3c1.1,0,2.2,0,3.3,0c0,0.8,0.1,1.6,0.1,2.4l-0.1,0.7h-1c-0.8,0-1.5,0-2.3,0C77.4,79.4,77.4,78.3,77.5,77.3
	 M69.1,79.7c1.2-0.7,2.3-1.4,3.5-2c0,1.5,0,3.1,0,4.6h2.3c0,0.2,0,0.5,0,0.8c0,0.7,0,1.3,0,2c-0.8,0-1.5,0-2.3,0c0,2.1,0,4.2,0,6.4
	c0,0.4,0,1,0.5,1.2c0.6,0.1,1.2,0,1.8-0.2c0.1,0.9,0.2,1.8,0.3,2.6c-1.5,0.6-3.2,0.6-4.7,0c-0.9-0.6-1.4-1.6-1.3-2.7
	c-0.1-2,0-4,0-6.1c0-0.4,0-0.8,0-1.3h-1.5c0-0.9,0-1.8,0-2.7h1.5C69.2,81.4,69.2,80.6,69.1,79.7 M159.7,79c0.4-0.6,1.1-0.9,1.8-0.9
	c0.8,0.1,1.4,0.8,1.4,1.6c0.1,1.4,0,2.9,0,4.3h-1.3c0-1.2,0-2.3,0-3.5c0-0.4-0.1-0.9-0.5-1.1s-1.1,0.3-1.2,0.9
	c-0.1,1.2,0,2.5-0.1,3.7h-1.3v-5.7c0.4,0,0.8,0,1.2,0c0,0.1,0,0.5,0,0.6 M168.7,78.1c0.4-0.2,0.8,0.1,1.2,0.2l-0.4,1.4
	c-0.4-0.2-1.2-0.2-1.3,0.4c-0.2,1.3-0.3,2.6-0.2,3.9h-1.3c0-1.9,0-3.8,0-5.7h1.2c0,0.2,0,0.5,0,0.7
	C168.2,78.6,168.4,78.4,168.7,78.1 M170.2,79.8c0.1-0.7,0.6-1.4,1.3-1.6c0.9-0.2,2.2-0.2,2.6,0.8c0.4,1.6-0.2,3.4,0.4,5
	c-0.5-0.1-1.4,0.3-1.4-0.5c-0.5,0.5-1.3,0.7-2,0.6c-0.9-0.4-1.4-1.4-1-2.3c0.1-0.3,0.4-0.6,0.7-0.8c0.7-0.3,1.5-0.4,2.2-0.7
	c-0.1-0.3-0.1-0.8-0.6-0.9c-0.5-0.1-1,0.2-1.2,0.7c0,0,0,0,0,0L170.2,79.8 M171.5,81.8c-0.5,0.5,0.1,1.4,0.7,1.2
	c0.7-0.3,0.8-1.1,0.8-1.7C172.5,81.3,172,81.5,171.5,81.8 M176.1,78.3c0.7-0.3,1.5-0.3,2.3,0c0.5,0.3,0.9,0.8,1,1.3l-1.2,0.3
	c-0.2-0.7-1.5-1-1.8-0.2c0,0.1,0.1,0.2,0.1,0.3c0.8,0.4,1.9,0.4,2.6,1.1c0.6,0.9,0.4,2-0.4,2.7c-0.1,0.1-0.2,0.2-0.4,0.2
	c-1,0.4-2.1,0.2-2.8-0.6c-0.2-0.3-0.4-0.6-0.5-1c0.4-0.1,0.8-0.2,1.2-0.2c0.2,0.2,0.3,0.4,0.5,0.7c0.4,0.4,1.1,0.3,1.4-0.1
	c0,0,0.1-0.1,0.1-0.1c0-0.1-0.1-0.3-0.1-0.4c-0.8-0.2-1.5-0.5-2.2-0.8c-0.8-0.6-1-1.6-0.4-2.4C175.6,78.6,175.8,78.4,176.1,78.3
	 M184.6,78.9c0.3-0.6,1-0.9,1.7-0.7c0.1,0,0.2,0.1,0.2,0.1c-0.1,0.5-0.2,0.9-0.3,1.3c-0.4-0.1-0.8-0.2-1.1,0
	c-0.2,0.3-0.3,0.7-0.3,1.1c-0.1,1.1-0.1,2.1-0.1,3.2h-1.3c0-1.9,0-3.8,0-5.7h1.3L184.6,78.9 M187,78.2h1.3c0,1.2,0,2.3,0,3.5
	c0,0.4,0.1,0.9,0.5,1.1s1.1-0.3,1.2-0.8c0.1-1.2,0-2.5,0.1-3.8h1.3c0,1.9,0,3.8,0,5.7h-1.2c0-0.2,0-0.5,0-0.7
	c-0.5,0.6-1.2,0.9-2,0.8c-0.7-0.2-1.2-0.9-1.1-1.7C187,80.9,187,79.6,187,78.2 M192.9,78.7c0.7-0.7,1.8-0.8,2.7-0.4
	c0.6,0.4,1,1,1.1,1.6l-1.3,0.3c-0.2-0.4-0.3-0.9-0.8-0.9c-0.5,0-1,0.5-1.1,1.1c-0.1,0.7,0,1.4,0.2,2c0.2,0.4,0.7,0.5,1.1,0.3
	c0,0,0,0,0,0c0.3-0.2,0.4-0.6,0.5-1l1.3,0.3c-0.1,0.7-0.4,1.3-0.9,1.7c-0.9,0.6-2,0.5-2.8-0.1c-0.6-0.6-0.9-1.5-0.8-2.4
	C192.1,80.2,192.4,79.4,192.9,78.7 M207.1,78.8c0.3-0.3,0.5-0.8,0.9-0.8c0.3,0,0.7,0.1,1,0.2c-0.1,0.5-0.3,0.9-0.4,1.4
	c-0.3-0.3-0.9-0.2-1.1,0.1c-0.1,0.1-0.1,0.2-0.2,0.3c-0.1,1.3-0.2,2.6-0.1,3.8h-1.2c0-1.9,0-3.8,0-5.7h1.2
	C207.1,78.3,207.1,78.7,207.1,78.8 M210.3,78.4c0.9-0.6,2.1-0.4,2.8,0.5c0.5,0.8,0.7,1.7,0.6,2.7h-3.2c0.1,0.6,0.3,1.3,1.1,1.3
	c0.5,0,0.6-0.5,0.8-0.8l1.3,0.2c-0.2,0.6-0.5,1.1-1,1.4c-0.9,0.5-2,0.3-2.8-0.4c-0.6-0.8-0.8-1.8-0.7-2.8
	C209.2,79.7,209.6,78.9,210.3,78.4 M210.5,80.5h1.9c-0.1-0.5-0.3-1.2-0.9-1.3C210.9,79.1,210.5,79.9,210.5,80.5 M200.5,78.2h1.3
	c0,1.2,0,2.5,0,3.7c0.1,0.3,0.2,0.6,0.3,0.8c0.5,0.2,1.1,0,1.3-0.5c0,0,0-0.1,0-0.1c0.1-1.3,0.1-2.6,0.1-3.9h1.3c0,1.9,0,3.8,0,5.7
	h-1.2v-0.7c-0.5,0.7-1.3,1-2.1,0.7c-0.7-0.3-1.1-1-1-1.7C200.6,80.8,200.6,79.5,200.5,78.2 M53.8,82.1c1.1,0,2.3,0,3.5,0
	c0,1.9,0,3.8,0,5.7c0,1.2,0,2.3,0.2,3.4c0.1,0.4,0.2,0.7,0.5,1c1.3,0.9,3.1,0.5,3.9-0.8c0,0,0.1-0.1,0.1-0.1
	c0.2-0.5,0.2-1.1,0.2-1.6c0-2.5,0-5,0-7.6h3.4c0,2,0,4,0,6c0,2.3,0,4.6,0,6.9c-1.1,0.1-2.2,0.1-3.3,0.1c0-0.6,0-1.2,0-1.8
	c-0.6,0.7-1.3,1.3-2.2,1.7c-1.8,0.8-3.9,0.5-5.4-0.9c-0.8-1.2-1.1-2.6-1-4c0-2.6,0-5.3,0-7.9 M77.5,82.2c1.2-0.1,2.3,0,3.4,0v12.9
	c-1.1,0-2.3,0-3.4,0C77.5,90.8,77.5,86.5,77.5,82.2 M144.9,89.5h1.3c0,0.9,0,1.8,0,2.8c0.5-0.6,1.3-0.8,2-0.6c0.6,0.3,1,0.9,1,1.6
	c0,1.4,0,2.8,0,4.1h-1.2c0-1.2,0-2.4,0-3.6c0-0.4-0.1-0.9-0.6-1c-0.6-0.2-1.1,0.4-1.1,1c-0.1,1.2,0,2.4,0,3.6H145
	C145,94.7,145,92.1,144.9,89.5 M212.1,89.5h1.3c0,2.6,0,5.3,0,7.9h-1.2c0-0.2,0-0.5,0-0.7c-0.3,0.4-0.8,0.7-1.3,0.8
	c-0.8,0-1.6-0.5-1.9-1.3c-0.4-1-0.5-2.1-0.2-3.1c0.2-0.9,0.9-1.5,1.8-1.6c0.5,0,1,0.2,1.4,0.6C212,91.3,212,90.4,212.1,89.5
	 M210.5,92.9c-0.5,0.7-0.7,1.6-0.4,2.4c0.1,0.5,0.5,1.1,1.1,0.9c0.6-0.2,0.8-0.9,0.8-1.5c0.1-0.6-0.1-1.3-0.5-1.8
	C211.2,92.7,210.8,92.7,210.5,92.9 M128.5,89.5h5.2v1.4h-2c0,2.2,0,4.4,0,6.5h-1.3c0-2.2,0-4.4,0-6.5c-0.6,0-1.3,0-2,0
	C128.4,90.4,128.4,90,128.5,89.5 M161.3,89.5h1.3c0,2.6,0,5.3,0,7.9h-1.3V89.5 M199.3,89.5h1.4c0.9,2.6,1.8,5.3,2.6,7.9
	c-0.5,0-1,0-1.5,0c-0.2-0.6-0.4-1.2-0.6-1.8h-2.6l-0.5,1.8h-1.5C197.5,94.8,198.4,92.1,199.3,89.5 M199.9,91.5
	c-0.3,0.9-0.6,1.8-0.8,2.8h1.7C200.5,93.4,200.3,92.4,199.9,91.5 M134.9,92.2c0.7-0.8,2-0.9,2.8-0.2c0.1,0.1,0.1,0.1,0.2,0.2
	c0.6,0.8,0.9,1.8,0.8,2.8h-3.2c0.1,0.6,0.3,1.3,1,1.4c0.5,0,0.7-0.5,0.8-0.8l1.3,0.2c-0.1,0.5-0.4,0.9-0.8,1.3
	c-1,0.8-2.4,0.6-3.1-0.4c-0.3-0.4-0.5-0.9-0.5-1.4C134.1,94.3,134.3,93.2,134.9,92.2 M135.5,94.1h1.9c-0.1-0.5-0.3-1.2-0.9-1.3
	C135.9,92.7,135.6,93.5,135.5,94.1 M140.1,92.3c0.7-0.7,1.8-0.9,2.7-0.5c0.6,0.3,1,0.9,1.2,1.6c-0.4,0.1-0.8,0.2-1.3,0.3
	c-0.1-0.4-0.3-0.9-0.8-0.9c-0.5,0-0.9,0.4-1,0.8c-0.1,0.7-0.1,1.4,0.1,2c0.1,0.5,0.6,0.7,1.1,0.6c0,0,0,0,0.1,0
	c0.4-0.2,0.5-0.7,0.6-1l1.3,0.3c-0.1,0.8-0.6,1.5-1.3,1.9c-0.8,0.3-1.7,0.2-2.4-0.3c-0.6-0.6-0.9-1.3-0.9-2.1
	C139.3,94,139.6,93,140.1,92.3 M151.6,92.4c0.4-0.6,1.1-0.9,1.9-0.8c0.8,0.1,1.3,0.8,1.3,1.6c0.1,1.4,0,2.9,0,4.3h-1.3
	c0-1.1,0-2.3,0-3.4c0-0.4-0.1-1-0.6-1.2s-1.1,0.4-1.1,1c-0.1,1.2,0,2.4,0,3.6h-1.4v-5.8h1.2C151.6,91.8,151.6,92.2,151.6,92.4
	 M157.4,91.6c0.9-0.3,2,0,2.6,0.8c0.9,1.3,0.8,3.1-0.2,4.4c-0.9,0.9-2.4,0.9-3.3,0c0,0-0.1-0.1-0.1-0.2c-0.5-0.8-0.8-1.8-0.6-2.7
	C155.7,92.9,156.4,92,157.4,91.6 M157.7,92.9c-0.6,0.5-0.9,1.3-0.7,2c0,0.6,0.4,1.2,1.1,1.3c0.5,0,1-0.4,1.1-0.9
	c0.2-0.7,0.1-1.4-0.2-2C158.7,92.9,158.2,92.7,157.7,92.9 M165.4,91.6c0.9-0.3,2,0,2.6,0.8c0.9,1.3,0.9,3.1-0.2,4.4
	c-0.9,0.9-2.4,0.9-3.3,0c0,0-0.1-0.1-0.1-0.1c-0.5-0.8-0.8-1.8-0.6-2.7C163.7,92.9,164.4,92,165.4,91.6 M165.7,92.9
	c-0.8,0.5-0.8,1.6-0.6,2.4c0.1,0.6,0.8,1.2,1.4,0.9c0.7-0.6,0.9-1.5,0.6-2.4c-0.1-0.6-0.6-1-1.2-0.9
	C165.9,92.8,165.8,92.9,165.7,92.9 M169.4,93c0.2-0.8,1-1.4,1.8-1.5c0.6,0,1.1,0.3,1.4,0.7v-0.6h1.2c0,1.8,0,3.6,0,5.4
	c0.1,0.8-0.2,1.6-0.7,2.3c-0.8,0.5-1.8,0.6-2.7,0.2c-0.7-0.3-1.2-1-1.1-1.8l1.4,0.2c0.2,0.5,0.8,0.8,1.3,0.6c0.1,0,0.1,0,0.2-0.1
	c0.5-0.4,0.3-1.2,0.4-1.8c-0.4,0.5-0.9,0.8-1.6,0.8c-0.8-0.1-1.4-0.7-1.6-1.5C169.1,94.9,169.1,93.9,169.4,93 M171.1,92.9
	c-0.5,0.6-0.7,1.4-0.5,2.2c0,0.6,0.7,1.3,1.3,0.9c0.7-0.6,0.9-1.6,0.6-2.4C172.4,93,171.7,92.5,171.1,92.9 M205,92.4
	c0.3-0.5,0.9-0.8,1.5-0.9c0.8-0.1,1.6,0.5,1.6,1.4c0,0,0,0,0,0c0.1,1.5,0,3,0,4.5h-1.3c0-1.3,0-2.6,0-3.8c0-0.5-0.6-1-1.1-0.8
	c-0.4,0.2-0.6,0.7-0.6,1.2c-0.1,1.1,0,2.3,0,3.4h-1.3v-5.7h1.1C204.9,91.9,204.9,92.1,205,92.4 M174.3,91.6h1.4
	c0.4,1.3,0.7,2.6,1.1,3.9c0.4-1.3,0.7-2.6,1.1-3.9h1.3c-0.6,2.2-1.3,4.3-2,6.4c-0.1,0.6-0.5,1.1-1,1.4c-0.5,0.2-1,0.2-1.5,0.1
	c-0.1-0.4-0.1-0.8-0.1-1.2c0.6,0.2,1.2-0.1,1.4-0.7c0.1-0.2,0.1-0.4,0-0.5C175.5,95.3,174.9,93.5,174.3,91.6 M130,103
	c0.9-0.4,2-0.3,2.9,0.2c0.6,0.5,0.9,1.2,0.9,2c-0.4,0-0.9,0.1-1.3,0.1c-0.1-0.4-0.2-0.9-0.7-1c-0.5-0.2-1.1-0.1-1.5,0.3
	c-0.3,0.3-0.1,0.7,0.1,0.9c1,0.6,2.2,0.5,3,1.4c1,1.2,0.6,3.5-1,4c-1,0.3-2.1,0.2-2.9-0.4c-0.6-0.6-0.9-1.3-0.9-2.1
	c0.4-0.1,0.9-0.1,1.3-0.2c0.1,0.5,0.3,0.9,0.7,1.3c0.6,0.4,1.4,0.3,1.9-0.3c0,0,0-0.1,0.1-0.1c0.2-0.4,0.1-0.9-0.3-1.2c0,0,0,0,0,0
	c-0.9-0.2-1.7-0.6-2.5-1c-1-0.8-1.1-2.3-0.3-3.3C129.6,103.4,129.8,103.2,130,103 M149.1,103h1.3c0,0.5,0,1,0,1.4h-1.3
	C149.1,103.9,149.1,103.4,149.1,103 M181.9,103h1.3c0,2.2,0,4.3,0,6.5c1.1,0,2.2,0,3.3,0c0,0.4,0,0.9,0,1.3h-4.6L181.9,103
	 M187.4,103h1.3c0,0.5,0,1,0,1.4h-1.3C187.4,103.9,187.4,103.4,187.4,103 M198.1,103h1.3c0,0.5,0,1,0,1.4h-1.3
	C198.2,103.9,198.2,103.4,198.1,103 M211.9,103h1.3v7.9H212c0-0.2,0-0.5,0-0.6c-0.4,0.4-0.9,0.7-1.4,0.8c-0.9-0.1-1.7-0.7-1.9-1.6
	c-0.3-0.9-0.3-1.9,0-2.9c0.2-0.8,0.9-1.4,1.8-1.5c0.5,0,1,0.3,1.4,0.6C211.9,104.7,211.9,103.9,211.9,103 M210.5,106.3
	c-0.5,0.3-0.8,0.9-0.7,1.5c-0.1,0.7,0.1,1.4,0.6,1.9c0.4,0.3,1,0.1,1.2-0.3c0-0.1,0.1-0.1,0.1-0.2c0.2-0.7,0.2-1.5,0-2.2
	C211.5,106.4,211,106.1,210.5,106.3C210.5,106.3,210.5,106.3,210.5,106.3 M200.6,104c0.4-0.3,0.9-0.6,1.3-0.9v2h0.9v1.2h-0.9
	c0,1-0.1,2.1,0.1,3.1c0.1,0.4,0.5,0.2,0.8,0.1l0.1,1.2c-0.6,0.1-1.3,0.4-1.8-0.1c-0.4-0.3-0.4-0.8-0.4-1.2c0-1,0-2.1,0-3.1H200v-1.2
	h0.6C200.6,104.7,200.6,104.4,200.6,104 M135.6,105.5c0.8-0.8,2.1-0.7,2.9,0.1c0,0,0.1,0.1,0.1,0.1c0.5,0.8,0.7,1.7,0.6,2.7
	c-1.1,0-2.1,0-3.2,0c0.1,0.5,0.3,1.3,1,1.3c0.5,0.1,0.7-0.4,0.9-0.8l1.2,0.3c-0.2,0.7-0.6,1.2-1.2,1.5c-0.9,0.4-1.9,0.2-2.6-0.5
	c-0.5-0.7-0.8-1.5-0.7-2.4C134.7,107,135,106.2,135.6,105.5 M136.1,107.5h1.9c-0.1-0.5-0.3-1.3-1-1.3c-0.7,0-0.9,0.8-1,1.3
	 M140.1,105.2h1.2c0,0.2,0,0.5,0,0.6c0.2-0.2,0.4-0.4,0.6-0.6c0.4-0.2,0.8,0,1.1,0c0.5,0,1,0,1.5,0c0.4,1.3,0.8,2.5,1.1,3.8
	c0.4-1.3,0.8-2.5,1.1-3.8h1.4c-0.6,1.9-1.2,3.8-1.9,5.7h-1.2c-0.6-1.8-1.2-3.6-1.8-5.4c-0.2,0.4-0.3,0.8-0.4,1.2l-0.6-0.3
	c-0.4,0.1-0.8,0.5-0.8,1c-0.1,1.2-0.1,2.3-0.1,3.5h-1.1c0-1.9,0-3.8,0-5.7 M149.1,105.2h1.3c0,1.9,0,3.8,0,5.7h-1.3
	C149.1,109,149.1,107.1,149.1,105.2 M152.1,105.7c0.7-0.7,1.8-0.8,2.7-0.3c0.5,0.4,0.9,0.9,1,1.6l-1.3,0.3c-0.1-0.3-0.2-0.7-0.5-0.8
	c-0.5-0.2-1,0-1.2,0.5c0,0.1,0,0.1-0.1,0.2c-0.2,0.7-0.2,1.5,0.1,2.2c0.2,0.5,0.7,0.7,1.1,0.5c0.1,0,0.1-0.1,0.2-0.1
	c0.2-0.3,0.3-0.6,0.4-0.9l1.2,0.3c-0.1,0.7-0.5,1.3-1,1.8c-0.9,0.6-2.2,0.4-2.9-0.4c-0.5-0.7-0.7-1.6-0.6-2.5
	C151.3,107,151.5,106.2,152.1,105.7 M157.2,105.6c0.8-0.8,2.1-0.7,2.8,0.1c0.1,0.1,0.1,0.1,0.2,0.2c0.5,0.8,0.7,1.7,0.6,2.7
	c-1.1,0-2.1,0-3.2,0c0.1,0.5,0.3,1.3,1,1.3c0.5,0.1,0.7-0.5,0.9-0.8l1.3,0.3c-0.2,0.7-0.6,1.2-1.2,1.5c-0.9,0.4-1.9,0.2-2.6-0.5
	c-0.5-0.7-0.7-1.5-0.7-2.4C156.3,107.1,156.6,106.2,157.2,105.6 M157.6,107.6h1.9c-0.1-0.5-0.3-1.3-0.9-1.3S157.7,107,157.6,107.6
	 M162.5,105.3c0.7-0.2,1.4-0.2,2.1,0c0.6,0.3,1,0.8,1.1,1.4l-1.2,0.2c-0.2-0.5-0.8-0.8-1.4-0.6c-0.2,0-0.4,0.2-0.4,0.4
	c0,0.1,0,0.2,0.1,0.2c0.8,0.4,1.9,0.4,2.6,1.1c0.6,0.8,0.5,2-0.4,2.7c-0.2,0.1-0.3,0.2-0.5,0.3c-0.8,0.3-1.7,0.2-2.4-0.3
	c-0.4-0.4-0.7-0.8-0.9-1.4l1.3-0.2c0.2,0.4,0.4,0.9,0.9,0.9s1.1-0.2,1-0.8c-0.7-0.6-1.8-0.5-2.5-1.1c-0.7-0.7-0.6-1.9,0.2-2.5
	C162.3,105.4,162.4,105.3,162.5,105.3 M187.4,105.2h1.3v5.7h-1.3C187.4,109,187.4,107.1,187.4,105.2 M189.7,105.2h1.2v0.6
	c0.4-0.5,1.1-0.8,1.8-0.7c0.4,0.1,0.8,0.4,1,0.8c0.4-0.5,1-0.8,1.6-0.8c0.8,0.1,1.4,0.8,1.4,1.6c0.1,1.4,0,2.8,0,4.2h-1.3
	c0-1.2,0-2.4,0-3.7c0-0.4-0.1-0.8-0.4-1c-0.3,0-0.5,0.1-0.8,0.2c-0.6,1.4-0.2,3-0.3,4.4h-1.3c0-1.2,0-2.4,0-3.7c0-0.4-0.1-1-0.6-1
	s-0.9,0.6-0.9,1.1c-0.1,1.2,0,2.3,0,3.5h-1.3C189.8,109,189.8,107.1,189.7,105.2 M198.1,105.2h1.3c0,1.9,0,3.8,0,5.7h-1.3
	C198.1,109,198.1,107.1,198.1,105.2 M204.1,105.6c0.9-0.8,2.2-0.7,2.9,0.2c0,0,0.1,0.1,0.1,0.1c0.5,0.8,0.7,1.7,0.6,2.7
	c-1.1,0-2.1,0-3.2,0c0.1,0.5,0.3,1.3,1,1.3c0.5,0.1,0.6-0.5,0.9-0.8c0.4,0,0.8,0.1,1.2,0.2c-0.2,0.7-0.6,1.2-1.2,1.5
	c-0.9,0.4-1.9,0.2-2.6-0.5c-0.5-0.7-0.8-1.5-0.7-2.4C203.2,107.1,203.5,106.2,204.1,105.6 M204.5,107.5h1.9
	c-0.1-0.5-0.3-1.3-0.9-1.3S204.6,107,204.5,107.5L204.5,107.5z"/>
<rect x="30.9" y="53.2" class="st3" width="196.1" height="83.8"/>
</svg>
